<?xml version="1.0" encoding="UTF-8"?>
<svg version="1.1" xmlns="http://www.w3.org/2000/svg" width="32" height="32">
<path d="M0 0 C1.4540625 0.0309375 1.4540625 0.0309375 2.9375 0.0625 C3.205625 0.805 3.47375 1.5475 3.75 2.3125 C4.88156435 4.93296481 6.22567158 6.8059989 7.9375 9.0625 C7.9375 9.7225 7.9375 10.3825 7.9375 11.0625 C8.55625 11.165625 9.175 11.26875 9.8125 11.375 C11.9375 12.0625 11.9375 12.0625 13.9375 15.0625 C14.71036121 19.7805481 14.36114132 23.25904232 12.125 27.5 C9.66898138 30.37705038 8.05388936 31.89275659 4.265625 32.46875 C-5.06706632 32.75299441 -5.06706632 32.75299441 -9.25 29.1875 C-12.75329627 25.65863223 -13.27839498 23.21285279 -13.4375 18.25 C-13.40542506 11.57039455 -13.40542506 11.57039455 -10.6875 8.8125 C-8.0625 7.0625 -8.0625 7.0625 -6.0625 7.0625 C-5.753125 6.093125 -5.44375 5.12375 -5.125 4.125 C-3.72021812 0.07592282 -3.72021812 0.07592282 0 0 Z " fill="#B5646F" transform="translate(16.0625,-0.0625)"/>
<path d="M0 0 C1.4540625 0.0309375 1.4540625 0.0309375 2.9375 0.0625 C3.205625 0.805 3.47375 1.5475 3.75 2.3125 C4.88156435 4.93296481 6.22567158 6.8059989 7.9375 9.0625 C7.9375 9.7225 7.9375 10.3825 7.9375 11.0625 C8.8965625 11.2790625 8.8965625 11.2790625 9.875 11.5 C11.9375 12.0625 11.9375 12.0625 12.9375 13.0625 C13.51796897 18.11543483 13.48651225 22.00233841 11.125 26.5625 C8.82882146 29.18670405 7.25121614 30.94905301 3.67578125 31.2578125 C2.87527344 31.23460938 2.07476562 31.21140625 1.25 31.1875 C0.44175781 31.16945313 -0.36648438 31.15140625 -1.19921875 31.1328125 C-1.81410156 31.10960938 -2.42898438 31.08640625 -3.0625 31.0625 C-3.0625 30.7325 -3.0625 30.4025 -3.0625 30.0625 C-2.45921875 29.97613281 -1.8559375 29.88976562 -1.234375 29.80078125 C2.66026364 29.11607865 5.34410533 28.5256373 8.5 26.0625 C10.57214105 21.73803172 10.26695826 17.77558342 9.9375 13.0625 C9.2775 13.0625 8.6175 13.0625 7.9375 13.0625 C7.6075 14.0525 7.2775 15.0425 6.9375 16.0625 C6.504375 14.99 6.07125 13.9175 5.625 12.8125 C4.65061773 10.51110188 3.76504265 8.83255686 2.25 6.8125 C0.9375 5.0625 0.9375 5.0625 0.9375 2.0625 C-0.0525 2.3925 -1.0425 2.7225 -2.0625 3.0625 C-2.3925 6.3625 -2.7225 9.6625 -3.0625 13.0625 C-4.0525 13.0625 -5.0425 13.0625 -6.0625 13.0625 C-6.0625 12.0725 -6.0625 11.0825 -6.0625 10.0625 C-8.23978073 10.93894433 -8.23978073 10.93894433 -10.0625 13.0625 C-10.84764701 17.35188206 -10.5586876 20.97561287 -8.75 24.9375 C-7.27823998 26.79082743 -5.81654169 28.4755099 -4.0625 30.0625 C-7.22374161 29.7990632 -8.85944972 29.22164751 -11.375 27.25 C-13.98417889 22.32155098 -13.95905691 17.51718237 -13.0625 12.0625 C-11.6345725 9.5122531 -10.55784708 8.72606472 -8.0625 7.0625 C-7.4025 7.0625 -6.7425 7.0625 -6.0625 7.0625 C-5.753125 6.093125 -5.44375 5.12375 -5.125 4.125 C-3.72021812 0.07592282 -3.72021812 0.07592282 0 0 Z " fill="#E9E9EB" transform="translate(16.0625,-0.0625)"/>
<path d="M0 0 C3 0 3 0 5.5625 2.375 C6.366875 3.24125 7.17125 4.1075 8 5 C8.66 5.66 9.32 6.32 10 7 C10.33 6.34 10.66 5.68 11 5 C11.66 5 12.32 5 13 5 C14.98362069 7.91708924 14.9876191 9.12380904 14.625 12.75 C14.41875 13.8225 14.2125 14.895 14 16 C12.22992286 16.08114106 10.45877902 16.13925505 8.6875 16.1875 C7.70136719 16.22230469 6.71523437 16.25710937 5.69921875 16.29296875 C3 16 3 16 1.20703125 14.67578125 C-0.95936144 11.66807101 -1.13666989 8.95765635 -1.125 5.375 C-1.12757813 4.57835937 -1.13015625 3.78171875 -1.1328125 2.9609375 C-1 1 -1 1 0 0 Z " fill="#E4747B" transform="translate(6,12)"/>
<path d="M0 0 C3.875 0.875 3.875 0.875 5 2 C5.33 1.34 5.66 0.68 6 0 C6.66 0 7.32 0 8 0 C9.76462683 3.08809695 10 4.23312136 10 8 C8.68 8 7.36 8 6 8 C5.67 7.34 5.34 6.68 5 6 C4.67 6.66 4.34 7.32 4 8 C3.34 8 2.68 8 2 8 C-0.1519437 4.77208445 -0.20086443 3.71599191 0 0 Z " fill="#FFD0D0" transform="translate(11,17)"/>
<path d="M0 0 C0.66 0.33 1.32 0.66 2 1 C2.36308044 6.10329727 2.58277658 9.87463833 0.1875 14.5 C-2.10867854 17.12420405 -3.68628386 18.88655301 -7.26171875 19.1953125 C-8.06222656 19.17210938 -8.86273438 19.14890625 -9.6875 19.125 C-10.89986328 19.09792969 -10.89986328 19.09792969 -12.13671875 19.0703125 C-12.75160156 19.04710938 -13.36648438 19.02390625 -14 19 C-14 18.67 -14 18.34 -14 18 C-13.39671875 17.91363281 -12.7934375 17.82726562 -12.171875 17.73828125 C-8.23646837 17.04641138 -5.59266864 16.47702598 -2.4375 13.9375 C-0.70341707 10.39393922 -0.71560903 7.87061157 -0.95703125 3.98828125 C-1 2 -1 2 0 0 Z " fill="#C9C8CB" transform="translate(27,12)"/>
<path d="M0 0 C0.268125 0.7425 0.53625 1.485 0.8125 2.25 C1.94406435 4.87046481 3.28817158 6.7434989 5 9 C5 9.66 5 10.32 5 11 C5.99 11 6.98 11 8 11 C7.67 11.99 7.34 12.98 7 14 C6.34 13.67 5.68 13.34 5 13 C4.67 13.99 4.34 14.98 4 16 C3.566875 14.9275 3.13375 13.855 2.6875 12.75 C1.71311773 10.44860188 0.82754265 8.77005686 -0.6875 6.75 C-2 5 -2 5 -2 2 C-2.66 1.67 -3.32 1.34 -4 1 C-2 0 -2 0 0 0 Z " fill="#DFDFE1" transform="translate(19,0)"/>
<path d="M0 0 C0.99 0.33 1.98 0.66 3 1 C0.71568262 3.35800504 -1.0081024 4.88720897 -4.3359375 5.265625 C-6.56920205 5.251535 -8.77382441 5.17460201 -11 5 C-11 4.67 -11 4.34 -11 4 C-10.37351562 3.87882812 -9.74703125 3.75765625 -9.1015625 3.6328125 C-8.28429687 3.46523438 -7.46703125 3.29765625 -6.625 3.125 C-5.81289063 2.96257813 -5.00078125 2.80015625 -4.1640625 2.6328125 C-1.81326077 2.13341068 -1.81326077 2.13341068 0 0 Z " fill="#D6D6D8" transform="translate(24,26)"/>
<path d="M0 0 C0.598125 0.763125 1.19625 1.52625 1.8125 2.3125 C3.46959332 4.3483575 5.10297674 6.1978279 7 8 C4.28324005 7.63287028 2.38936287 7.27255401 0.125 5.6875 C-1 4 -1 4 -0.6875 1.8125 C-0.460625 1.214375 -0.23375 0.61625 0 0 Z " fill="#E1E0E3" transform="translate(5,22)"/>
<path d="M0 0 C3.31012244 3.31012244 3.50351065 4.53159589 4 9 C3.01 9 2.02 9 1 9 C0.67 6.03 0.34 3.06 0 0 Z " fill="#9B5E79" transform="translate(20,9)"/>
</svg>
